# xmcd CD database file
#
# Track frame offsets:
#	150
#	32052
#	53087
#	74785
#	99624
#	129715
#	153465
#	170786
#
# Disc length: 2719 seconds
#
# Revision: 0
# Processed by: cddbd v1.5.2PL0 Copyright (c) Steve Scherf et al.
# Submitted via: CDex 1.51
#
DISCID=750a9d08
DTITLE=Athana - Dandy Lines and Nevergreens
DYEAR=2005
DGENRE=Jazz
TTITLE0=Porten
TTITLE1=Highway Shuffle
TTITLE2=Luskesangen
TTITLE3=A-AA
TTITLE4=Funk #4
TTITLE5=Kissing
TTITLE6=Warm Up
TTITLE7=Longyear
EXTD=YEAR: 2005
EXTT0=
EXTT1=
EXTT2=
EXTT3=
EXTT4=
EXTT5=
EXTT6=
EXTT7=
PLAYORDER=
